<svg xmlns="http://www.w3.org/2000/svg" viewBox="0 0 512 512" width="512" height="512">
  <rect width="512" height="512" rx="110" fill="#121212"/>
  <path d="M256 52c-2.8 14.3-9.8 27.4-20.2 37.7-10.3 10.3-23.4 17.4-37.7 20.2 14.3 2.8 27.4 9.8 37.7 20.2 10.3 10.3 17.4 23.4 20.2 37.7 2.8-14.3 9.8-27.4 20.2-37.7 10.3-10.3 23.4-17.4 37.7-20.2-14.3-2.8-27.4-9.8-37.7-20.2-10.4-10.3-17.4-23.4-20.2-37.7z" fill="#e5e5e5"/>
  <path d="M256 140c-58.8 0-112 38.5-128 100h256c-16-61.5-69.2-100-128-100z" fill="#e5e5e5"/>
  <path d="M128 240v172c0 6.6 5.4 12 12 12h60v-92c0-31 14-56 56-56s56 25 56 56v92h60c6.6 0 12-5.4 12-12V240H128z" fill="#262626"/>
  <path d="M224 332c0-22.1 14.3-40 32-40s32 17.9 32 40v92h-64v-92z" fill="#e5e5e5"/>
  <path d="M81 222h18v190H36c-4.4 0-8-3.6-8-8V230c0-4.4 3.6-8 8-8h45zm332 0h18v190h-45c-4.4 0-8-3.6-8-8V230c0-4.4 3.6-8 8-8h45z" fill="#404040"/>
  <path d="M90 170c-13.3 0-24 20-24 50h48c0-30-10.7-50-24-50zm332 0c-13.3 0-24 20-24 50h48c0-30-10.7-50-24-50z" fill="#e5e5e5"/>
  <path d="M80 384h352v24H80z" fill="#e5e5e5"/>
</svg>
